<svg id="Capa_1" enable-background="new 0 0 512 512" height="512" viewBox="0 0 512 512" width="512" xmlns="http://www.w3.org/2000/svg" xmlns:xlink="http://www.w3.org/1999/xlink"><linearGradient id="SVGID_1_" gradientUnits="userSpaceOnUse" x1="256" x2="256" y1="512" y2="0"><stop offset="0" stop-color="#fd3a84"/><stop offset="1" stop-color="#ffa68d"/></linearGradient><g><g><g><path d="m364.862 249.267c-2.529-4.208-6.957-6.912-11.855-7.24-4.903-.33-9.648 1.762-12.714 5.596l-6.652 8.315c-16.355-23.159-38.382-38.168-62.64-42.572v-93.366h15c41.355 0 75-33.645 75-75 0-8.284-6.716-15-15-15h-30c-19.049 0-36.452 7.151-49.695 18.894-10.626-28.521-38.128-48.894-70.306-48.894-8.284 0-15 6.716-15 15s6.716 15 15 15c24.813 0 45 20.187 45 45v30.041c-12.544-9.438-28.129-15.041-45-15.041h-30c-8.284 0-15 6.716-15 15 0 41.355 33.645 75 75 75h15v33.366c-24.257 4.405-46.285 19.413-62.64 42.572l-6.652-8.315c-3.066-3.834-7.81-5.924-12.714-5.596-4.898.328-9.327 3.032-11.855 7.24-17.1 28.454-26.139 62.249-26.139 97.733 0 86.332 56.309 165 135 165 80.016 0 135-80.375 135-165 0-35.484-9.039-69.279-26.138-97.733zm-48.862-189.267h12.43c-6.191 17.461-22.874 30-42.43 30h-12.43c6.191-17.461 22.874-30 42.43-30zm-90 90c-19.556 0-36.239-12.539-42.43-30h12.43c19.556 0 36.239 12.539 42.43 30zm30 92c22.443 0 43.595 14.273 57.891 38.624l-57.891 72.364-57.891-72.364c14.296-24.351 35.448-38.624 57.891-38.624zm0 240c-57.897 0-105-60.561-105-135 0-22.052 4.073-43.249 11.893-62.372l81.394 101.743c2.846 3.558 7.156 5.63 11.713 5.63s8.867-2.071 11.713-5.63l81.394-101.743c7.82 19.123 11.893 40.32 11.893 62.372 0 74.439-47.103 135-105 135z" fill="url(#SVGID_1_)"/></g></g></g></svg>